<svg width="12" height="12" viewBox="0 0 12 12" fill="none" xmlns="http://www.w3.org/2000/svg">
<g clip-path="url(#clip0_28_51)">
<path d="M12 6.49998C11.9985 7.46318 11.7656 8.41191 11.3208 9.26624C10.8759 10.1206 10.2323 10.8555 9.444 11.409L8.9755 11.7385L7.2715 10.3275L8.2285 9.17248L9.022 9.82898C9.69526 9.21874 10.168 8.41897 10.378 7.53491C10.5881 6.65085 10.5255 5.72391 10.1987 4.87607C9.87179 4.02823 9.29591 3.2992 8.54679 2.78492C7.79767 2.27063 6.91041 1.99517 6.00174 1.9948C5.09307 1.99442 4.20558 2.26914 3.45603 2.78281C2.70649 3.29648 2.13001 4.02503 1.80244 4.8726C1.47488 5.72017 1.41158 6.64705 1.62087 7.53129C1.83017 8.41552 2.30225 9.21568 2.975 9.82648L3.7515 9.17648L4.7155 10.3265L3.028 11.74L2.556 11.409C1.7117 10.8171 1.03416 10.0177 0.588741 9.08781C0.143322 8.15791 -0.0549433 7.12891 0.0130687 6.10008C0.0810807 5.07125 0.413075 4.0773 0.977027 3.21412C1.54098 2.35095 2.31786 1.64766 3.23272 1.17212C4.14758 0.696569 5.16956 0.464807 6.20006 0.499186C7.23056 0.533566 8.23482 0.832926 9.11595 1.36839C9.99709 1.90385 10.7254 2.65735 11.2305 3.5562C11.7357 4.45504 12.0007 5.4689 12 6.49998ZM6.09 5.50398L4.293 3.70698L3.2325 4.76748L5 6.53648C5.00703 6.72876 5.06938 6.91493 5.17957 7.07265C5.28976 7.23038 5.44311 7.35297 5.62123 7.42572C5.79935 7.49847 5.99468 7.51828 6.18379 7.4828C6.37289 7.44731 6.54774 7.35802 6.68736 7.22564C6.82699 7.09325 6.92546 6.9234 6.97096 6.73646C7.01647 6.54951 7.00707 6.35341 6.94391 6.17166C6.88075 5.98992 6.76649 5.83026 6.61485 5.71183C6.46322 5.5934 6.28063 5.52123 6.089 5.50398H6.09Z" fill="#7C7C7C"/>
</g>
<defs>
<clipPath id="clip0_28_51">
<rect width="12" height="12" fill="white"/>
</clipPath>
</defs>
</svg>
